<svg xmlns="http://www.w3.org/2000/svg" width="80" height="80" viewBox="0 0 80 80"><path d="M40,72a31.757,31.757,0,0,1-17.9-5.5A32.56,32.56,0,0,1,10.5,52.4a32.029,32.029,0,0,1,2.9-30.3A32.56,32.56,0,0,1,27.5,10.5,32.084,32.084,0,0,1,72,38.2H55L45.4,16.9H33.6L44,40H72c0,1.2-.1,2.4-.2,3.6H45.6l4,8.9H61.3l-3.2-7.1H71.5a30.108,30.108,0,0,1-3.8,10.5A31.647,31.647,0,0,1,40,72ZM30.6,43.6l4,8.9H46l-4-8.9Zm-5.9-5.4-6,14.2H31.1L24.7,38.2ZM31.9,21,26.4,34.2,29,40H40.4Z" transform="translate(0 0)" fill="#fff"/></svg>