<svg xmlns="http://www.w3.org/2000/svg" width="80" height="80" viewBox="0 0 80 80"><g transform="translate(-0.001 -0.001)"><path d="M293.315,363.749l-33.407-33.376a4.414,4.414,0,0,0-6.854,0l-33.407,33.376a7.785,7.785,0,0,0,5.638,13.153h.918v11.84h60.373V376.9h1.1a7.785,7.785,0,0,0,5.638-13.153Zm-10.385,21.514H229.877v-8.348h53.054ZM287.7,373.4H225.286a4.281,4.281,0,0,1-3.331-6.969L255.7,332.564a.98.98,0,0,1,1.557,0l33.753,33.864a4.285,4.285,0,0,1-3.336,6.969Z" transform="translate(-216.5 -318.74)" fill="#fff" fill-rule="evenodd"/><path d="M269.716,402.239h2.963c2.478,0,3.314-2.5,3.314-4.9,0-4.306-2.054-4.652-3.355-4.652h-2.922Zm-2.986,2.52V390.17h6.438c4.915,0,5.931,4.186,5.931,6.951,0,3.125-1.237,7.638-6.055,7.638Z" transform="translate(-244.05 -353.256)" fill="#fff" fill-rule="evenodd"/><path d="M112.636,64.02H104.9v3.065h7.112v2.58H104.9v3.78h8.086v2.58H101.91V61.44h10.726v2.58Z" transform="translate(-55.992 -24.521)" fill="#fff" fill-rule="evenodd"/><path d="M84.825,33.31H88L83.038,47.895h-2.9L75.22,33.31h3.268l3.129,11.049h.042L84.825,33.31Z" transform="translate(-41.104 -8.715)" fill="#fff" fill-rule="evenodd"/></g></svg>